<?xml version="1.0" encoding="UTF-8" standalone="no"?>
<!DOCTYPE svg PUBLIC "-//W3C//DTD SVG 1.1//EN" "http://www.w3.org/Graphics/SVG/1.1/DTD/svg11.dtd">
<svg width="100%" height="100%" viewBox="0 0 75 50" version="1.1" xmlns="http://www.w3.org/2000/svg" xmlns:xlink="http://www.w3.org/1999/xlink" xml:space="preserve" xmlns:serif="http://www.serif.com/" style="fill-rule:evenodd;clip-rule:evenodd;stroke-linejoin:round;stroke-miterlimit:2;">
    <path d="M64.819,34.481L64.819,40.449C64.819,41.222 64.467,41.575 63.695,41.575L59.411,41.575C58.639,41.575 58.288,41.222 58.288,40.449L58.288,9.549C58.288,8.778 58.639,8.427 59.411,8.427L63.695,8.427C64.467,8.427 64.819,8.778 64.819,9.549L64.819,15.589C64.819,16.222 65.239,16.643 65.941,16.573L73.244,15.872C73.877,15.8 74.368,15.379 74.368,14.748L74.368,9.41C74.368,3.02 70.929,0 65.661,0L57.093,0C51.825,0 48.386,3.02 48.386,9.41L48.386,40.591C48.386,46.98 51.825,50 57.093,50L65.661,50C70.929,50 74.368,46.98 74.368,40.591L74.368,33.639C74.368,33.004 73.947,32.585 73.244,32.655L65.941,33.357C65.31,33.427 64.819,33.849 64.819,34.481M44.102,48.314L39.044,36.236L39.044,35.675C41.572,34.34 43.118,31.601 43.118,27.317L43.118,9.832C43.118,3.44 39.678,0.42 34.41,0.42L17.837,0.42C17.135,0.42 16.783,0.773 16.783,1.475L16.783,48.526C16.783,49.228 17.135,49.579 17.837,49.579L25.632,49.579C26.335,49.579 26.685,49.228 26.685,48.526L26.685,37.641L29.775,37.641L34.128,48.667C34.34,49.298 34.902,49.579 35.465,49.579L43.398,49.579C44.172,49.579 44.382,48.946 44.102,48.314M33.216,28.089C33.216,28.863 32.864,29.213 32.092,29.213L26.685,29.213L26.685,8.848L32.092,8.848C32.864,8.848 33.216,9.2 33.216,9.972L33.216,28.089ZM9.902,48.526L9.902,1.475C9.902,0.773 9.55,0.42 8.847,0.42L1.053,0.42C0.35,0.42 -0,0.773 -0,1.475L-0,48.526C-0,49.228 0.35,49.579 1.053,49.579L8.847,49.579C9.55,49.579 9.902,49.228 9.902,48.526" style="fill:#e52a35;fill-rule:nonzero;"/>
</svg>
